<svg xmlns="http://www.w3.org/2000/svg" viewBox="0 0 324.581 324.58" version="1.1">
  <title>Teddy Bear</title>
  <desc>A purple teddy bear icon suitable for GitHub</desc>
  <path fill="#4c00b0" d="M280.24,164.025c-4.613-15.564-20.974-24.439-36.537-19.823c0,0-4.05,1.398-5.454,1.617
    c-1.696,0.268-9.949,2.922-14.761-0.762c-0.889-0.68-1.933-2.355-0.24-4.01c18.336-14.451,27.506-33.918,27.506-57.912
    c0-12.275-1.704-21.201-7.131-31.557c-1.263-2.709,0.543-3.477,1.442-3.941c8.364-4.311,14.035-12.66,14.035-22.258
    C259.1,11.361,247.006,0,232.091,0c-9.663,0-18.134,4.768-22.91,11.934c-0.579,0.873-2.061,2.547-5.148,0.902
    c-12.458-6.559-23.301-8.488-38.671-8.488c-14.81,0-25.843,2.088-37.986,8.209c-2.798,1.311-4.436-1.184-5.373-2.359
    c-4.923-6.19-12.78-10.197-21.638-10.197c-14.918,0-27.011,11.361-27.011,25.379c0,9.061,5.055,17.01,12.656,21.5
    c0.881,0.52,2.967,1.826,1.731,3.387c-5.622,10.506-7.77,20.361-7.77,32.869c0,24.354,9.604,44.228,28.419,58.68
    c2.082,1.686,0.813,3.051,0.048,3.646c-5.254,4.076-17.738,1.57-17.738,1.57l-9.441-2.988
    c-15.479-4.895-31.993,3.688-36.889,19.164c-4.894,15.478,3.686,31.992,19.163,36.89l4.613,1.459c0,0,2.85,0.977,2.641,4.096
    c-0.214,3.174-0.164,3.207-0.164,6.453c0,25.834,9.822,49.319,25.856,66.785c1.07,1.164,2.739,4.121,1.288,6.157
    c-2.98,4.188-4.166,8.572-4.116,14.104c0.129,14.171,11.721,25.556,25.892,25.427l31.694-0.285
    c6.99-0.063,14.99-7.498,17.885-7.498c2.452,0,11.33,7.851,18.631,7.783l31.695-0.285c14.171-0.129,25.554-11.723,25.426-25.894
    c-0.059-6.514-2.218-12.748-6.585-16.92c-2.271-2.168-0.648-4.438,0.235-5.479c14.52-17.125,23.307-39.461,23.307-63.896
    c0-3.984,0.041-5.433-0.414-9.293c-0.628-2.252,1.787-3.256,2.191-3.408C277.948,194.048,284.661,178.923,280.24,164.025z
     M201.02,62.347c6.678,0,12.092,5.412,12.092,12.092c0,6.676-5.414,12.09-12.092,12.09c-6.68,0-12.092-5.414-12.092-12.09
    C188.929,67.759,194.341,62.347,201.02,62.347z M166.228,106.548c6.625,0,11.996,2.971,11.996,6.635
    c0,3.666-5.371,6.637-11.996,6.637c-6.626,0-11.996-2.971-11.996-6.637C154.232,109.519,159.602,106.548,166.228,106.548z
     M131.434,62.347c6.678,0,12.092,5.412,12.092,12.092c0,6.676-5.414,12.09-12.092,12.09c-6.678,0-12.091-5.414-12.091-12.09
    C119.344,67.759,124.757,62.347,131.434,62.347z M212.748,226.089c-7.451,11.328-39.521,38.269-46.473,38.269
    c-6.804,0-39.167-27.037-46.568-38.269c-3.705-5.623-6.334-11.827-5.898-19.983c0.773-14.438,12.576-26.359,27.033-26.359
    c14.863,0,23.518,15.857,25.386,15.857c2.136,0,11.159-15.857,25.383-15.857c14.458,0,26.262,11.922,27.034,26.359
    C219.082,214.262,216.46,220.439,212.748,226.089z"/>
</svg>
